HIERARCHY
ROOT Hips
{
	OFFSET 0.000000 0.000000 0.000000
	CHANNELS 6 Xposition Yposition Zposition Zrotation Yrotation Xrotation 
	JOINT LowerBack
	{
		OFFSET 0.000000 0.000000 0.000000
		CHANNELS 3 Zrotation Yrotation Xrotation
		JOINT Spine
		{
			OFFSET 0.028270 2.035590 -0.193380
			CHANNELS 3 Zrotation Yrotation Xrotation
			JOINT Spine1
			{
				OFFSET 0.056720 2.048850 -0.042750
				CHANNELS 3 Zrotation Yrotation Xrotation
				JOINT Neck
				{
					OFFSET 0.000000 0.000000 0.000000
					CHANNELS 3 Zrotation Yrotation Xrotation
					JOINT Neck1
					{
						OFFSET -0.054170 1.746240 0.172020
						CHANNELS 3 Zrotation Yrotation Xrotation
						JOINT Head
						{
							OFFSET 0.104070 1.761360 -0.123970
							CHANNELS 3 Zrotation Yrotation Xrotation
							End Site
							{
								OFFSET 0.000000 0.000000 0.000000
							}
						}
					}
				}
				JOINT LeftShoulder
				{
					OFFSET 0.000000 0.000000 0.000000
					CHANNELS 3 Zrotation Yrotation Xrotation
					JOINT LeftArm
					{
						OFFSET 3.362410 1.200890 -0.311210
						CHANNELS 3 Zrotation Yrotation Xrotation
						JOINT LeftForeArm
						{
							OFFSET 4.983000 -0.000000 -0.000000
							CHANNELS 3 Zrotation Yrotation Xrotation
							JOINT LeftHand
							{
								OFFSET 3.483560 -0.000000 -0.000000
								CHANNELS 3 Zrotation Yrotation Xrotation
								JOINT LeftFingerBase
								{
									OFFSET 0.000000 0.000000 0.000000
									CHANNELS 3 Zrotation Yrotation Xrotation
									JOINT LeftHandIndex1
									{
										OFFSET 0.715260 -0.000000 -0.000000
										CHANNELS 3 Zrotation Yrotation Xrotation
										End Site
										{
											OFFSET 0.000000 0.000000 0.000000
										}
									}
								}
								JOINT LThumb
								{
									OFFSET 0.000000 0.000000 0.000000
									CHANNELS 3 Zrotation Yrotation Xrotation
									End Site
									{
										OFFSET 0.000000 0.000000 0.000000
									}
								}
							}
						}
					}
				}
				JOINT RightShoulder
				{
					OFFSET 0.000000 0.000000 0.000000
					CHANNELS 3 Zrotation Yrotation Xrotation
					JOINT RightArm
					{
						OFFSET -3.136600 1.374050 -0.404650
						CHANNELS 3 Zrotation Yrotation Xrotation
						JOINT RightForeArm
						{
							OFFSET -5.241900 -0.000000 -0.000000
							CHANNELS 3 Zrotation Yrotation Xrotation
							JOINT RightHand
							{
								OFFSET -3.444170 -0.000000 -0.000000
								CHANNELS 3 Zrotation Yrotation Xrotation
								JOINT RightFingerBase
								{
									OFFSET 0.000000 0.000000 0.000000
									CHANNELS 3 Zrotation Yrotation Xrotation
									JOINT RightHandIndex1
									{
										OFFSET -0.622530 -0.000000 -0.000000
										CHANNELS 3 Zrotation Yrotation Xrotation
										End Site
										{
											OFFSET 0.000000 0.000000 0.000000
										}
									}
								}
								JOINT RThumb
								{
									OFFSET 0.000000 0.000000 0.000000
									CHANNELS 3 Zrotation Yrotation Xrotation
									End Site
									{
										OFFSET 0.000000 0.000000 0.000000
									}
								}
							}
						}
					}
				}
			}
		}
	}
}
}
MOTION
Frames: 18
Frame Time: 0.008333
9.930664 22.173113 1.701167 49.259940 -80.443693 -9.238400 -1.571350 -1.744537 -3.187032 -0.690556 -1.702939 -2.806073 -3.662637 -1.778951 2.641455 5.624479 -8.815478 -5.002498 -2.082035 -0.177919 0.531565 0.000000 0.000000 0.000000 5.306451 3.600276 1.243038 -39.168506 -21.671320 -3.119004 -0.666996 -70.112605 -0.054569 8.555353 -0.115635 -0.037166 -0.204609 0.386103 0.000000 0.000000 0.000000 0.000000 0.000000 0.000000 0.000000 7.586869 -7.370193 2.848961 29.970241 31.352859 -5.827006 1.865128 39.553847 -0.011935 -5.708943 4.531577 -0.245590 0.165648 -0.262638 0.000000 0.000000 0.000000 0.000000 0.000000 0.000000 0.000000 
9.817964 22.222145 1.685475 49.647606 -80.169485 -8.092910 -1.585912 -1.804181 -3.343155 -0.661167 -1.762271 -2.816888 -3.483027 -1.845799 2.784173 5.478406 -9.106265 -4.923989 -1.934746 -0.168335 0.541694 0.000000 0.000000 0.000000 5.443127 3.550038 1.381132 -37.276570 -21.696889 -3.387279 -0.709232 -69.243539 -0.047716 7.518123 0.392678 0.002553 -0.194187 0.372074 0.000000 0.000000 0.000000 0.000000 0.000000 0.000000 0.000000 7.058473 -7.678241 2.805207 27.667671 30.344017 -5.018342 1.782890 41.578626 -0.013181 -5.830439 4.024079 -0.224095 0.171159 -0.258594 0.000000 0.000000 0.000000 0.000000 0.000000 0.000000 0.000000 
9.703698 22.254858 1.668447 50.231253 -79.913717 -7.022921 -1.618482 -1.871567 -3.576412 -0.635374 -1.829197 -2.852163 -3.302793 -1.921067 2.913446 5.334828 -9.473239 -4.865930 -1.785372 -0.158387 0.545977 0.000000 0.000000 0.000000 5.684372 3.462889 1.529774 -35.128079 -21.257092 -3.718438 -0.736822 -68.849395 -0.040566 6.391618 0.904210 0.032477 -0.182778 0.357810 0.000000 0.000000 0.000000 0.000000 0.000000 0.000000 0.000000 6.529213 -8.032116 2.748671 25.203234 29.088807 -4.381986 1.669281 44.204793 -0.015229 -6.082995 3.512283 -0.205696 0.177695 -0.256458 0.000000 0.000000 0.000000 0.000000 0.000000 0.000000 0.000000 
9.587098 22.272754 1.649654 51.018401 -79.675901 -6.065079 -1.675107 -1.947586 -3.849169 -0.616462 -1.904114 -2.903578 -3.129447 -2.004663 3.028420 5.212497 -9.918844 -4.842543 -1.637227 -0.148002 0.539803 0.000000 0.000000 0.000000 6.001961 3.375074 1.690868 -32.758079 -20.359275 -4.142738 -0.749692 -68.917896 -0.033396 5.223091 1.362037 0.048907 -0.170708 0.344395 0.000000 0.000000 0.000000 0.000000 0.000000 0.000000 0.000000 6.033032 -8.434552 2.680780 22.625433 27.597454 -4.077783 1.529521 47.355570 -0.018076 -6.447817 2.991718 -0.187794 0.185162 -0.256392 0.000000 0.000000 0.000000 0.000000 0.000000 0.000000 0.000000 
9.467258 22.277297 1.628786 51.987847 -79.454250 -5.235424 -1.758676 -2.033572 -4.119528 -0.606658 -1.988172 -2.960518 -2.968602 -2.097271 3.129893 5.126820 -10.443183 -4.867689 -1.491504 -0.136953 0.518699 0.000000 0.000000 0.000000 6.370525 3.327491 1.865526 -30.221158 -19.034801 -4.684385 -0.748655 -69.395009 -0.026457 4.063466 1.716689 0.051940 -0.158455 0.332948 0.000000 0.000000 0.000000 0.000000 0.000000 0.000000 0.000000 5.590466 -8.885325 2.604264 20.006767 25.880815 -4.209963 1.372943 50.928404 -0.021597 -6.880264 2.459333 -0.167494 0.193315 -0.258235 0.000000 0.000000 0.000000 0.000000 0.000000 0.000000 0.000000 
9.343286 22.270671 1.605792 53.084834 -79.246189 -4.523672 -1.867472 -2.130370 -4.344421 -0.606440 -2.082456 -3.010439 -2.822748 -2.199579 3.221426 5.088825 -11.047338 -4.955654 -1.347259 -0.124842 0.478099 0.000000 0.000000 0.000000 6.772073 3.370060 2.053620 -27.595746 -17.355117 -5.360889 -0.735981 -70.179229 -0.019892 2.952965 1.929751 0.044276 -0.146415 0.324541 0.000000 0.000000 0.000000 0.000000 0.000000 0.000000 0.000000 5.209305 -9.385514 2.523385 17.429052 23.955959 -4.816590 1.209917 54.805596 -0.025544 -7.319202 1.919613 -0.142896 0.201703 -0.261593 0.000000 0.000000 0.000000 0.000000 0.000000 0.000000 0.000000 
9.214015 22.254032 1.580493 54.251872 -79.052413 -3.912518 -1.997390 -2.241031 -4.489029 -0.615890 -2.190735 -3.043021 -2.695157 -2.315075 3.303443 5.109080 -11.707629 -5.108077 -1.205929 -0.111639 0.417069 0.000000 0.000000 0.000000 7.191727 3.514642 2.253850 -24.949922 -15.319162 -6.174382 -0.712413 -71.214778 -0.013924 1.944363 1.994740 0.031215 -0.135440 0.319568 0.000000 0.000000 0.000000 0.000000 0.000000 0.000000 0.000000 4.903247 -9.915047 2.444666 14.951735 21.818109 -5.854093 1.048195 58.903678 -0.029692 -7.716740 1.348318 -0.111305 0.210035 -0.265393 0.000000 0.000000 0.000000 0.000000 0.000000 0.000000 0.000000 
9.078631 22.229594 1.553341 55.395397 -78.875924 -3.350078 -2.137302 -2.362438 -4.529627 -0.631463 -2.310834 -3.048298 -2.581272 -2.441473 3.383375 5.182396 -12.426869 -5.334879 -1.062182 -0.096698 0.332512 0.000000 0.000000 0.000000 7.627623 3.810082 2.462644 -22.393441 -13.048998 -7.116876 -0.682278 -72.355220 -0.008433 1.039774 1.901028 0.016854 -0.125443 0.318593 0.000000 0.000000 0.000000 0.000000 0.000000 0.000000 0.000000 4.646043 -10.477875 2.375089 12.669895 19.501080 -7.268314 0.894437 63.087236 -0.033538 -7.995541 0.781925 -0.075021 0.217345 -0.269361 0.000000 0.000000 0.000000 0.000000 0.000000 0.000000 0.000000 
8.936891 22.198452 1.524233 56.541734 -78.741618 -2.880789 -2.292930 -2.489097 -4.464058 -0.654196 -2.437207 -3.022801 -2.477573 -2.573215 3.464478 5.303034 -13.184837 -5.631554 -0.912813 -0.079759 0.225541 0.000000 0.000000 0.000000 8.086599 4.262157 2.675220 -20.014086 -10.584224 -8.167626 -0.647850 -73.523841 -0.003389 0.246445 1.665050 0.004992 -0.116595 0.321441 0.000000 0.000000 0.000000 0.000000 0.000000 0.000000 0.000000 4.417387 -11.055983 2.323000 10.650614 17.026534 -8.958337 0.750896 67.260119 -0.036695 -8.110659 0.234425 -0.036545 0.222976 -0.273019 0.000000 0.000000 0.000000 0.000000 0.000000 0.000000 0.000000 
8.787697 22.161864 1.495901 57.249084 -78.601753 -2.100138 -2.375019 -2.632340 -4.291929 -0.658397 -2.586242 -2.964442 -2.378311 -2.726810 3.550311 5.437750 -13.965200 -5.989332 -0.755151 -0.060677 0.098722 0.000000 0.000000 0.000000 8.534482 4.870307 2.887438 -17.900188 -7.993383 -9.289735 -0.611661 -74.658946 0.001377 -0.452940 1.308697 -0.002268 -0.108528 0.327903 0.000000 0.000000 0.000000 0.000000 0.000000 0.000000 0.000000 4.167322 -11.648065 2.292193 8.932336 14.431635 -10.813657 0.617324 71.322548 -0.038773 -8.031179 -0.262538 -0.000579 0.226216 -0.276142 0.000000 0.000000 0.000000 0.000000 0.000000 0.000000 0.000000 
8.629669 22.119642 1.465123 57.994099 -78.545231 -1.493745 -2.491877 -2.768612 -4.038930 -0.673397 -2.727957 -2.877102 -2.284800 -2.871952 3.644593 5.606158 -14.754010 -6.389976 -0.589769 -0.039761 -0.042122 0.000000 0.000000 0.000000 9.026454 5.605300 3.089655 -16.101379 -5.290009 -10.429830 -0.574266 -75.728836 0.005998 -1.084971 0.862488 -0.003932 -0.100744 0.336896 0.000000 0.000000 0.000000 0.000000 0.000000 0.000000 0.000000 3.923057 -12.238555 2.288726 7.554946 11.763015 -12.705443 0.491912 75.208071 -0.039519 -7.749819 -0.677687 0.028183 0.226521 -0.278878 0.000000 0.000000 0.000000 0.000000 0.000000 0.000000 0.000000 
8.464063 22.072369 1.433622 58.680399 -78.553380 -0.944728 -2.616468 -2.901064 -3.752989 -0.688529 -2.866343 -2.772085 -2.187177 -3.012852 3.751895 5.769180 -15.555981 -6.816088 -0.410687 -0.016837 -0.191123 0.000000 0.000000 0.000000 9.562047 6.445137 3.275633 -14.685152 -2.548932 -11.546437 -0.537235 -76.700211 0.010686 -1.690786 0.358936 0.000299 -0.092385 0.347936 -0.000000 0.000000 0.000000 0.000000 0.000000 0.000000 0.000000 3.620297 -12.841817 2.310495 6.538898 9.109112 -14.533391 0.373457 78.821540 -0.038837 -7.282471 -0.969252 0.045441 0.223668 -0.281976 0.000000 0.000000 0.000000 0.000000 0.000000 0.000000 0.000000 
8.290940 22.019878 1.402106 59.248910 -78.630187 -0.374969 -2.737577 -3.027585 -3.490733 -0.700373 -2.999215 -2.666800 -2.086615 -3.147517 3.867220 5.910690 -16.298033 -7.236229 -0.224037 0.007012 -0.337793 0.000000 0.000000 0.000000 10.130790 7.301236 3.445287 -13.641728 0.272358 -12.578173 -0.498803 -77.624469 0.015481 -2.286678 -0.175096 0.010730 -0.083350 0.360089 0.000000 0.000000 0.000000 0.000000 0.000000 0.000000 0.000000 3.256062 -13.386835 2.359601 5.838128 6.431688 -16.188065 0.259503 82.171263 -0.036814 -6.656489 -1.146932 0.052000 0.217794 -0.285235 0.000000 0.000000 0.000000 0.000000 0.000000 0.000000 0.000000 
8.111605 21.962997 1.371342 59.737139 -78.775768 0.171660 -2.858057 -3.143580 -3.269921 -0.707635 -3.120820 -2.565910 -1.977854 -3.270106 3.995669 6.008577 -17.027093 -7.635549 -0.027055 0.031686 -0.477057 0.000000 0.000000 0.000000 10.746764 8.163684 3.589924 -13.005902 3.057388 -13.506462 -0.459891 -78.479382 0.020596 -2.920851 -0.700867 0.027059 -0.072443 0.372800 0.000000 0.000000 0.000000 0.000000 0.000000 0.000000 0.000000 2.803691 -13.928396 2.425529 5.428927 3.890289 -17.613888 0.151837 85.170821 -0.033668 -5.922854 -1.177324 0.047761 0.209113 -0.289750 0.000000 0.000000 0.000000 0.000000 0.000000 0.000000 0.000000 
7.927192 21.902521 1.341308 60.234829 -78.990765 0.601548 -2.998387 -3.245150 -3.105176 -0.715692 -3.225750 -2.475903 -1.860965 -3.375175 4.133587 6.058765 -17.730577 -7.993444 0.175929 0.056374 -0.602134 0.000000 0.000000 0.000000 11.424925 8.983220 3.705764 -12.763995 5.765366 -14.309577 -0.419700 -79.290473 0.026077 -3.612844 -1.192134 0.049183 -0.059202 0.385516 0.000000 0.000000 0.000000 0.000000 0.000000 0.000000 0.000000 2.274615 -14.456093 2.500882 5.252436 1.539283 -18.763795 0.051762 87.815349 -0.029709 -5.131258 -1.073034 0.036421 0.198149 -0.295708 0.000000 0.000000 0.000000 0.000000 0.000000 0.000000 0.000000 
7.738264 21.838949 1.311176 60.871388 -79.272465 0.793528 -3.193826 -3.329688 -3.017600 -0.736118 -3.309771 -2.406680 -1.741755 -3.458698 4.270786 6.077504 -18.328907 -8.289371 0.371514 0.079436 -0.705949 0.000000 0.000000 0.000000 12.164325 9.668578 3.796440 -12.837317 8.444053 -14.966334 -0.375170 -80.132278 0.031762 -4.349399 -1.613822 0.075806 -0.044055 0.397221 0.000000 0.000000 0.000000 0.000000 0.000000 0.000000 0.000000 1.726112 -14.884917 2.585358 5.208338 -0.698423 -19.600690 179.958337 89.818892 179.974695 -4.325994 -0.893642 0.023487 0.185741 -0.302066 0.000000 0.000000 0.000000 0.000000 0.000000 0.000000 0.000000 
7.546851 21.773445 1.281762 61.663212 -79.616101 0.713429 -3.435997 -3.392357 -2.988138 -0.766327 -3.368072 -2.354828 -1.617063 -3.515947 4.405687 6.054835 -18.866720 -8.520423 0.561389 0.100839 -0.787837 0.000000 0.000000 0.000000 12.980991 10.239145 3.854069 -13.235910 10.957324 -15.490338 -0.327997 -80.977973 0.037713 -5.143850 -1.955169 0.105728 -0.026527 0.407983 0.000000 0.000000 0.000000 0.000000 0.000000 0.000000 0.000000 1.143139 -15.262464 2.666507 5.262764 -2.693040 -20.141285 179.875001 87.767382 179.979179 -3.557536 -0.644223 0.011055 0.172627 -0.309290 0.000000 0.000000 0.000000 0.000000 0.000000 0.000000 0.000000 
7.353973 21.707007 1.252980 62.658406 -80.016800 0.311018 -3.731510 -3.429800 -3.009529 -0.810373 -3.397151 -2.321645 -1.491744 -3.543659 4.529025 6.006044 -19.301111 -8.682886 0.736414 0.119619 -0.846580 0.000000 0.000000 0.000000 13.867648 10.661773 3.880038 -13.897102 13.291316 -15.884361 -0.277240 -81.860008 0.043751 -5.971257 -2.202690 0.136550 -0.007258 0.417294 0.000000 0.000000 0.000000 0.000000 0.000000 0.000000 0.000000 0.566697 -15.540844 2.742812 5.344393 -4.483262 -20.402226 179.801464 85.971377 179.983401 -2.863167 -0.374297 0.001626 0.159742 -0.316492 0.000000 0.000000 0.000000 0.000000 0.000000 0.000000 0.000000 
